<svg xmlns="http://www.w3.org/2000/svg" xmlns:xlink="http://www.w3.org/1999/xlink" width="40" zoomAndPan="magnify" viewBox="0 0 30 30.000001" height="40" preserveAspectRatio="xMidYMid meet" version="1.0"><defs><clipPath id="id1"><path d="M 0.957031 0.472656 L 29.261719 0.472656 L 29.261719 28.777344 L 0.957031 28.777344 Z M 0.957031 0.472656 " clip-rule="nonzero"/></clipPath></defs><g clip-path="url(#id1)"><path fill="rgb(10.198975%, 27.839661%, 53.729248%)" d="M 29.261719 24.472656 C 29.261719 26.847656 27.335938 28.773438 24.960938 28.773438 L 5.257812 28.773438 C 2.882812 28.773438 0.957031 26.847656 0.957031 24.472656 L 0.957031 4.769531 C 0.957031 2.394531 2.882812 0.46875 5.257812 0.46875 L 24.960938 0.46875 C 27.335938 0.46875 29.261719 2.394531 29.261719 4.769531 Z M 29.261719 24.472656 " fill-opacity="1" fill-rule="nonzero"/></g><path fill="rgb(100%, 100%, 100%)" d="M 19.710938 16.820312 L 20.167969 13.273438 L 16.65625 13.273438 L 16.65625 11.007812 C 16.65625 9.980469 16.941406 9.277344 18.414062 9.277344 L 20.292969 9.277344 L 20.292969 6.101562 C 19.96875 6.058594 18.855469 5.964844 17.554688 5.964844 C 14.84375 5.964844 12.992188 7.617188 12.992188 10.65625 L 12.992188 13.273438 L 9.925781 13.273438 L 9.925781 16.820312 L 12.992188 16.820312 L 12.992188 25.929688 L 16.65625 25.929688 L 16.65625 16.820312 Z M 19.710938 16.820312 " fill-opacity="1" fill-rule="nonzero"/></svg>