<svg xmlns="http://www.w3.org/2000/svg" xmlns:xlink="http://www.w3.org/1999/xlink" width="500" zoomAndPan="magnify" viewBox="0 0 375 149.999998" height="200" preserveAspectRatio="xMidYMid meet" version="1.0"><defs><g><g id="id1"/></g><clipPath id="id2"><path d="M 3.246094 26.367188 L 76.429688 26.367188 L 76.429688 114 L 3.246094 114 Z M 3.246094 26.367188 " clip-rule="nonzero"/></clipPath></defs><rect x="-37.5" width="450" fill="rgb(100%, 100%, 100%)" y="-15" height="179.999997" fill-opacity="1"/><rect x="-37.5" width="450" fill="rgb(100%, 100%, 100%)" y="-15" height="179.999997" fill-opacity="1"/><rect x="-37.5" width="450" fill="rgb(100%, 100%, 100%)" y="-15" height="179.999997" fill-opacity="1"/><rect x="-37.5" width="450" fill="rgb(100%, 100%, 100%)" y="-15" height="179.999997" fill-opacity="1"/><path fill="rgb(84.309387%, 14.898682%, 23.919678%)" d="M 98.746094 42.507812 C 99.78125 42.878906 100.917969 42.339844 101.289062 41.296875 C 101.660156 40.261719 101.121094 39.113281 100.085938 38.742188 C 97.898438 37.960938 92.410156 36.558594 88.625 40.496094 C 86.050781 43.179688 86.109375 47.742188 86.371094 50.21875 C 86.480469 51.246094 87.34375 52.007812 88.347656 52.007812 C 88.417969 52.007812 88.488281 52.003906 88.5625 51.996094 C 89.652344 51.878906 90.441406 50.894531 90.324219 49.796875 C 90.011719 46.84375 90.457031 44.347656 91.484375 43.273438 C 93.664062 41.015625 97.289062 41.988281 98.746094 42.507812 Z M 98.746094 42.507812 " fill-opacity="1" fill-rule="nonzero"/><path fill="rgb(84.309387%, 14.898682%, 23.919678%)" d="M 139.121094 75.824219 C 139.054688 75.875 132.347656 80.855469 120.027344 82.609375 C 118.941406 82.765625 118.1875 83.777344 118.339844 84.871094 C 118.480469 85.867188 119.332031 86.589844 120.304688 86.589844 C 120.398438 86.589844 120.492188 86.582031 120.585938 86.566406 C 134.007812 84.65625 141.222656 79.242188 141.519531 79.011719 C 142.394531 78.34375 142.5625 77.09375 141.902344 76.214844 C 141.246094 75.339844 140 75.160156 139.121094 75.824219 Z M 139.121094 75.824219 " fill-opacity="1" fill-rule="nonzero"/><path fill="rgb(84.309387%, 14.898682%, 23.919678%)" d="M 136.421875 88.367188 C 136.351562 88.398438 129.195312 91.753906 121.015625 91.949219 C 119.921875 91.976562 119.050781 92.894531 119.078125 94 C 119.101562 95.085938 119.988281 95.949219 121.0625 95.949219 C 121.082031 95.949219 121.097656 95.949219 121.113281 95.949219 C 130.160156 95.734375 137.804688 92.132812 138.125 91.980469 C 139.117188 91.507812 139.539062 90.316406 139.070312 89.320312 C 138.605469 88.324219 137.417969 87.894531 136.421875 88.367188 Z M 136.421875 88.367188 " fill-opacity="1" fill-rule="nonzero"/><path fill="rgb(84.309387%, 14.898682%, 23.919678%)" d="M 134.203125 98.554688 C 134.15625 98.585938 129.417969 101.410156 121.960938 101.144531 C 121.941406 101.140625 121.917969 101.140625 121.894531 101.140625 C 120.828125 101.140625 119.941406 101.992188 119.910156 103.074219 C 119.871094 104.175781 120.730469 105.101562 121.828125 105.140625 C 122.199219 105.152344 122.566406 105.160156 122.925781 105.160156 C 130.992188 105.160156 136.050781 102.109375 136.273438 101.972656 C 137.207031 101.398438 137.5 100.175781 136.929688 99.230469 C 136.363281 98.289062 135.144531 97.988281 134.203125 98.554688 Z M 134.203125 98.554688 " fill-opacity="1" fill-rule="nonzero"/><path fill="rgb(84.309387%, 14.898682%, 23.919678%)" d="M 130.542969 108.617188 C 130.507812 108.636719 126.96875 110.335938 123.390625 109.433594 C 122.320312 109.167969 121.246094 109.816406 120.976562 110.886719 C 120.710938 111.960938 121.355469 113.046875 122.421875 113.316406 C 123.511719 113.589844 124.582031 113.695312 125.59375 113.695312 C 129.257812 113.695312 132.148438 112.28125 132.304688 112.203125 C 133.28125 111.710938 133.683594 110.519531 133.199219 109.53125 C 132.714844 108.542969 131.527344 108.132812 130.542969 108.617188 Z M 130.542969 108.617188 " fill-opacity="1" fill-rule="nonzero"/><path fill="rgb(84.309387%, 14.898682%, 23.919678%)" d="M 147.101562 35.082031 C 140.839844 26.824219 128.707031 28.808594 124.945312 30.15625 C 123.300781 30.746094 121.609375 31.257812 119.917969 31.683594 C 115.949219 32.679688 111.75 32.679688 107.78125 31.683594 C 106.089844 31.257812 104.398438 30.746094 102.75 30.15625 C 98.269531 28.550781 89.425781 27.792969 83.425781 32.273438 C 78.898438 35.652344 76.789062 41.214844 77.160156 48.867188 C 77.792969 56.488281 80 61.914062 81.945312 66.703125 C 82.601562 68.316406 83.21875 69.839844 83.734375 71.339844 C 85.742188 77.210938 87.214844 81.976562 89.238281 94.226562 C 91 104.871094 93.457031 111.25 96.96875 114.300781 C 97.621094 114.867188 98.414062 115.277344 99.320312 115.527344 C 99.867188 115.679688 100.421875 115.75 100.976562 115.75 C 102.246094 115.75 103.492188 115.363281 104.558594 114.617188 C 106.085938 113.542969 107.054688 111.855469 107.214844 109.984375 L 109.039062 88.609375 C 109.921875 77.96875 114.988281 76.457031 125.445312 74.289062 C 139.457031 71.390625 144.757812 66.828125 144.976562 66.636719 C 145.800781 65.90625 145.882812 64.644531 145.160156 63.8125 C 144.433594 62.980469 143.179688 62.894531 142.351562 63.625 C 142.308594 63.664062 137.425781 67.722656 124.644531 70.371094 C 115.179688 72.332031 106.238281 74.183594 105.074219 88.273438 L 103.25 109.644531 C 103.191406 110.328125 102.839844 110.941406 102.28125 111.335938 C 101.722656 111.730469 101.027344 111.847656 100.367188 111.667969 C 100.039062 111.578125 99.765625 111.441406 99.570312 111.273438 C 96.875 108.933594 94.714844 102.976562 93.160156 93.570312 C 91.085938 81.015625 89.566406 76.101562 87.492188 70.039062 C 86.941406 68.429688 86.300781 66.859375 85.625 65.191406 C 83.785156 60.671875 81.703125 55.542969 81.125 48.605469 C 80.828125 42.4375 82.398438 38.023438 85.792969 35.488281 C 90.511719 31.964844 97.882812 32.660156 101.414062 33.925781 C 103.183594 34.558594 105 35.109375 106.816406 35.566406 C 111.417969 36.71875 116.277344 36.71875 120.878906 35.566406 C 122.695312 35.109375 124.511719 34.554688 126.28125 33.925781 C 130.117188 32.546875 139.472656 31.621094 143.9375 37.507812 C 145.5625 39.648438 146.214844 42.347656 145.765625 45.105469 C 145.285156 48.0625 143.59375 50.722656 141.128906 52.402344 C 136.550781 55.523438 131.46875 57.691406 125.988281 58.859375 C 115.796875 61.238281 110.882812 62.847656 107.222656 64.996094 C 106.273438 65.550781 105.953125 66.777344 106.503906 67.730469 C 107.058594 68.6875 108.277344 69.003906 109.226562 68.449219 C 112.464844 66.550781 117.253906 65.007812 126.851562 62.761719 C 132.796875 61.496094 138.351562 59.125 143.359375 55.710938 C 146.726562 53.417969 149.035156 49.785156 149.691406 45.75 C 150.320312 41.898438 149.398438 38.105469 147.101562 35.082031 Z M 147.101562 35.082031 " fill-opacity="1" fill-rule="nonzero"/><g fill="rgb(26.669312%, 56.079102%, 63.919067%)" fill-opacity="1"><g transform="translate(156.844805, 72.886285)"><g><path d="M 4.867188 -4.980469 L 12.859375 -4.980469 L 14.746094 0 L 17.785156 0 L 9.878906 -19.953125 L 7.792969 -19.953125 L -0.113281 0 L 2.953125 0 Z M 11.820312 -7.652344 L 5.910156 -7.652344 L 8.863281 -15.421875 Z M 11.820312 -7.652344 "/></g></g></g><g fill="rgb(26.669312%, 56.079102%, 63.919067%)" fill-opacity="1"><g transform="translate(176.792573, 72.886285)"><g><path d="M 14.519531 -2.84375 L 5.261719 -2.84375 L 5.261719 -19.699219 L 2.421875 -19.699219 L 2.421875 0 L 14.519531 0 Z M 14.519531 -2.84375 "/></g></g></g><g fill="rgb(26.669312%, 56.079102%, 63.919067%)" fill-opacity="1"><g transform="translate(193.561198, 72.886285)"><g><path d="M 14.519531 -2.84375 L 5.261719 -2.84375 L 5.261719 -19.699219 L 2.421875 -19.699219 L 2.421875 0 L 14.519531 0 Z M 14.519531 -2.84375 "/></g></g></g><g fill="rgb(26.669312%, 56.079102%, 63.919067%)" fill-opacity="1"><g transform="translate(210.329823, 72.886285)"><g><path d="M 9.566406 -9.90625 L 1.96875 -9.90625 L 1.96875 -7.570312 L 9.566406 -7.570312 Z M 9.566406 -9.90625 "/></g></g></g><g fill="rgb(26.669312%, 56.079102%, 63.919067%)" fill-opacity="1"><g transform="translate(224.763327, 72.886285)"><g><path d="M 0.984375 -9.847656 C 0.984375 -4.164062 5.515625 0.367188 11.199219 0.367188 C 16.882812 0.367188 21.441406 -4.164062 21.441406 -9.847656 C 21.441406 -15.535156 16.882812 -20.09375 11.199219 -20.09375 C 5.515625 -20.09375 0.984375 -15.535156 0.984375 -9.847656 Z M 3.910156 -9.847656 C 3.910156 -13.902344 7.148438 -17.164062 11.199219 -17.164062 C 15.253906 -17.164062 18.515625 -13.902344 18.515625 -9.847656 C 18.515625 -5.796875 15.253906 -2.5625 11.199219 -2.5625 C 7.148438 -2.5625 3.910156 -5.796875 3.910156 -9.847656 Z M 3.910156 -9.847656 "/></g></g></g><g fill="rgb(26.669312%, 56.079102%, 63.919067%)" fill-opacity="1"><g transform="translate(249.493877, 72.886285)"><g><path d="M 2.421875 -19.699219 L 2.421875 0 L 5.261719 0 L 5.261719 -13.761719 L 14.773438 0 L 17.023438 0 L 17.023438 -19.699219 L 14.210938 -19.699219 L 14.210938 -5.824219 L 4.613281 -19.699219 Z M 2.421875 -19.699219 "/></g></g></g><g fill="rgb(26.669312%, 56.079102%, 63.919067%)" fill-opacity="1"><g transform="translate(271.045284, 72.886285)"><g><path d="M 9.566406 -9.90625 L 1.96875 -9.90625 L 1.96875 -7.570312 L 9.566406 -7.570312 Z M 9.566406 -9.90625 "/></g></g></g><g fill="rgb(26.669312%, 56.079102%, 63.919067%)" fill-opacity="1"><g transform="translate(285.478793, 72.886285)"><g><path d="M 2.421875 0 L 5.261719 0 L 5.261719 -8.640625 L 13.140625 -8.640625 L 13.140625 -11.285156 L 5.261719 -11.285156 L 5.261719 -17.109375 L 14.15625 -17.109375 L 14.15625 -19.867188 L 2.421875 -19.867188 Z M 2.421875 0 "/></g></g></g><g fill="rgb(26.669312%, 56.079102%, 63.919067%)" fill-opacity="1"><g transform="translate(302.35996, 72.886285)"><g><path d="M 0.984375 -9.847656 C 0.984375 -4.164062 5.515625 0.367188 11.199219 0.367188 C 16.882812 0.367188 21.441406 -4.164062 21.441406 -9.847656 C 21.441406 -15.535156 16.882812 -20.09375 11.199219 -20.09375 C 5.515625 -20.09375 0.984375 -15.535156 0.984375 -9.847656 Z M 3.910156 -9.847656 C 3.910156 -13.902344 7.148438 -17.164062 11.199219 -17.164062 C 15.253906 -17.164062 18.515625 -13.902344 18.515625 -9.847656 C 18.515625 -5.796875 15.253906 -2.5625 11.199219 -2.5625 C 7.148438 -2.5625 3.910156 -5.796875 3.910156 -9.847656 Z M 3.910156 -9.847656 "/></g></g></g><g fill="rgb(26.669312%, 56.079102%, 63.919067%)" fill-opacity="1"><g transform="translate(327.09051, 72.886285)"><g><path d="M 9.457031 0.195312 C 12.832031 0.195312 16.714844 -1.886719 16.714844 -5.882812 L 16.714844 -19.894531 L 13.84375 -19.894531 L 13.84375 -5.910156 C 13.84375 -3.742188 11.507812 -2.644531 9.457031 -2.644531 C 7.371094 -2.644531 5.039062 -3.714844 5.039062 -5.882812 L 5.039062 -19.894531 L 2.167969 -19.894531 L 2.167969 -5.910156 C 2.167969 -1.886719 5.992188 0.195312 9.457031 0.195312 Z M 9.457031 0.195312 "/></g></g></g><g fill="rgb(26.669312%, 56.079102%, 63.919067%)" fill-opacity="1"><g transform="translate(348.07924, 72.886285)"><g><path d="M 9.597656 -9.988281 L 6.273438 -9.988281 L 6.273438 -8.640625 L 13.449219 0 L 17.136719 0 L 10.917969 -7.402344 C 14.296875 -7.992188 16.011719 -10.636719 16.011719 -13.421875 C 16.011719 -16.546875 13.875 -19.953125 9.597656 -19.953125 L 2.421875 -19.953125 L 2.421875 0 L 5.234375 0 L 5.234375 -17.082031 L 9.597656 -17.082031 C 11.988281 -17.082031 13.167969 -15.113281 13.167969 -13.421875 C 13.167969 -11.707031 11.988281 -9.988281 9.597656 -9.988281 Z M 9.597656 -9.988281 "/></g></g></g><g fill="rgb(0.389099%, 59.21936%, 96.469116%)" fill-opacity="1"><g transform="translate(157.45048, 99.93335)"><g><path d="M 12.125 -6.46875 C 12.125 -4.375 11.53125 -2.769531 10.34375 -1.65625 C 9.15625 -0.550781 7.4375 0 5.1875 0 L 1.59375 0 L 1.59375 -12.6875 L 5.578125 -12.6875 C 7.648438 -12.6875 9.257812 -12.140625 10.40625 -11.046875 C 11.550781 -9.953125 12.125 -8.425781 12.125 -6.46875 Z M 9.328125 -6.40625 C 9.328125 -9.125 8.125 -10.484375 5.71875 -10.484375 L 4.28125 -10.484375 L 4.28125 -2.21875 L 5.4375 -2.21875 C 8.03125 -2.21875 9.328125 -3.613281 9.328125 -6.40625 Z M 9.328125 -6.40625 "/></g></g></g><g fill="rgb(0.389099%, 59.21936%, 96.469116%)" fill-opacity="1"><g transform="translate(171.939775, 99.93335)"><g><path d="M 5.40625 -8 C 4.84375 -8 4.398438 -7.820312 4.078125 -7.46875 C 3.765625 -7.113281 3.585938 -6.609375 3.546875 -5.953125 L 7.265625 -5.953125 C 7.242188 -6.609375 7.066406 -7.113281 6.734375 -7.46875 C 6.410156 -7.820312 5.96875 -8 5.40625 -8 Z M 5.78125 0.171875 C 4.21875 0.171875 2.992188 -0.253906 2.109375 -1.109375 C 1.234375 -1.972656 0.796875 -3.195312 0.796875 -4.78125 C 0.796875 -6.40625 1.203125 -7.660156 2.015625 -8.546875 C 2.828125 -9.441406 3.953125 -9.890625 5.390625 -9.890625 C 6.765625 -9.890625 7.832031 -9.5 8.59375 -8.71875 C 9.351562 -7.9375 9.734375 -6.859375 9.734375 -5.484375 L 9.734375 -4.1875 L 3.484375 -4.1875 C 3.515625 -3.4375 3.738281 -2.847656 4.15625 -2.421875 C 4.570312 -2.003906 5.15625 -1.796875 5.90625 -1.796875 C 6.488281 -1.796875 7.039062 -1.851562 7.5625 -1.96875 C 8.082031 -2.09375 8.625 -2.289062 9.1875 -2.5625 L 9.1875 -0.515625 C 8.726562 -0.285156 8.234375 -0.113281 7.703125 0 C 7.179688 0.113281 6.539062 0.171875 5.78125 0.171875 Z M 5.78125 0.171875 "/></g></g></g><g fill="rgb(0.389099%, 59.21936%, 96.469116%)" fill-opacity="1"><g transform="translate(183.77366, 99.93335)"><g><path d="M 10.34375 0 L 7.703125 0 L 7.703125 -5.671875 C 7.703125 -6.367188 7.578125 -6.890625 7.328125 -7.234375 C 7.078125 -7.585938 6.679688 -7.765625 6.140625 -7.765625 C 5.398438 -7.765625 4.863281 -7.515625 4.53125 -7.015625 C 4.195312 -6.523438 4.03125 -5.707031 4.03125 -4.5625 L 4.03125 0 L 1.390625 0 L 1.390625 -9.703125 L 3.40625 -9.703125 L 3.765625 -8.46875 L 3.921875 -8.46875 C 4.210938 -8.9375 4.613281 -9.289062 5.125 -9.53125 C 5.644531 -9.769531 6.238281 -9.890625 6.90625 -9.890625 C 8.03125 -9.890625 8.882812 -9.582031 9.46875 -8.96875 C 10.050781 -8.363281 10.34375 -7.484375 10.34375 -6.328125 Z M 10.34375 0 "/></g></g></g><g fill="rgb(0.389099%, 59.21936%, 96.469116%)" fill-opacity="1"><g transform="translate(196.787727, 99.93335)"><g><path d="M 5.484375 -1.9375 C 5.941406 -1.9375 6.492188 -2.035156 7.140625 -2.234375 L 7.140625 -0.265625 C 6.484375 0.0234375 5.675781 0.171875 4.71875 0.171875 C 3.65625 0.171875 2.878906 -0.09375 2.390625 -0.625 C 1.910156 -1.164062 1.671875 -1.96875 1.671875 -3.03125 L 1.671875 -7.71875 L 0.40625 -7.71875 L 0.40625 -8.84375 L 1.859375 -9.71875 L 2.625 -11.765625 L 4.328125 -11.765625 L 4.328125 -9.703125 L 7.046875 -9.703125 L 7.046875 -7.71875 L 4.328125 -7.71875 L 4.328125 -3.03125 C 4.328125 -2.65625 4.429688 -2.378906 4.640625 -2.203125 C 4.847656 -2.023438 5.128906 -1.9375 5.484375 -1.9375 Z M 5.484375 -1.9375 "/></g></g></g><g fill="rgb(0.389099%, 59.21936%, 96.469116%)" fill-opacity="1"><g transform="translate(205.836032, 99.93335)"><g><path d="M 7.546875 0 L 7.046875 -1.3125 L 6.96875 -1.3125 C 6.519531 -0.757812 6.0625 -0.375 5.59375 -0.15625 C 5.125 0.0625 4.507812 0.171875 3.75 0.171875 C 2.820312 0.171875 2.085938 -0.09375 1.546875 -0.625 C 1.015625 -1.15625 0.75 -1.914062 0.75 -2.90625 C 0.75 -3.9375 1.109375 -4.691406 1.828125 -5.171875 C 2.546875 -5.660156 3.632812 -5.929688 5.09375 -5.984375 L 6.765625 -6.046875 L 6.765625 -6.46875 C 6.765625 -7.445312 6.265625 -7.9375 5.265625 -7.9375 C 4.484375 -7.9375 3.570312 -7.703125 2.53125 -7.234375 L 1.65625 -9.03125 C 2.769531 -9.613281 4.003906 -9.90625 5.359375 -9.90625 C 6.660156 -9.90625 7.660156 -9.617188 8.359375 -9.046875 C 9.054688 -8.484375 9.40625 -7.625 9.40625 -6.46875 L 9.40625 0 Z M 6.765625 -4.5 L 5.75 -4.46875 C 4.976562 -4.4375 4.40625 -4.289062 4.03125 -4.03125 C 3.65625 -3.78125 3.46875 -3.394531 3.46875 -2.875 C 3.46875 -2.132812 3.894531 -1.765625 4.75 -1.765625 C 5.363281 -1.765625 5.851562 -1.941406 6.21875 -2.296875 C 6.582031 -2.648438 6.765625 -3.117188 6.765625 -3.703125 Z M 6.765625 -4.5 "/></g></g></g><g fill="rgb(0.389099%, 59.21936%, 96.469116%)" fill-opacity="1"><g transform="translate(217.90422, 99.93335)"><g><path d="M 4.03125 0 L 1.390625 0 L 1.390625 -13.515625 L 4.03125 -13.515625 Z M 4.03125 0 "/></g></g></g><g fill="rgb(0.389099%, 59.21936%, 96.469116%)" fill-opacity="1"><g transform="translate(224.661583, 99.93335)"><g/></g></g><g fill="rgb(0.389099%, 59.21936%, 96.469116%)" fill-opacity="1"><g transform="translate(230.611908, 99.93335)"><g><path d="M 6.984375 -10.640625 C 5.972656 -10.640625 5.1875 -10.257812 4.625 -9.5 C 4.070312 -8.738281 3.796875 -7.675781 3.796875 -6.3125 C 3.796875 -3.476562 4.859375 -2.0625 6.984375 -2.0625 C 7.878906 -2.0625 8.960938 -2.285156 10.234375 -2.734375 L 10.234375 -0.484375 C 9.191406 -0.046875 8.023438 0.171875 6.734375 0.171875 C 4.890625 0.171875 3.476562 -0.382812 2.5 -1.5 C 1.519531 -2.625 1.03125 -4.234375 1.03125 -6.328125 C 1.03125 -7.648438 1.269531 -8.804688 1.75 -9.796875 C 2.226562 -10.785156 2.914062 -11.546875 3.8125 -12.078125 C 4.71875 -12.609375 5.773438 -12.875 6.984375 -12.875 C 8.222656 -12.875 9.460938 -12.578125 10.703125 -11.984375 L 9.84375 -9.796875 C 9.363281 -10.015625 8.882812 -10.207031 8.40625 -10.375 C 7.925781 -10.550781 7.453125 -10.640625 6.984375 -10.640625 Z M 6.984375 -10.640625 "/></g></g></g><g fill="rgb(0.389099%, 59.21936%, 96.469116%)" fill-opacity="1"><g transform="translate(243.270184, 99.93335)"><g><path d="M 7.546875 0 L 7.046875 -1.3125 L 6.96875 -1.3125 C 6.519531 -0.757812 6.0625 -0.375 5.59375 -0.15625 C 5.125 0.0625 4.507812 0.171875 3.75 0.171875 C 2.820312 0.171875 2.085938 -0.09375 1.546875 -0.625 C 1.015625 -1.15625 0.75 -1.914062 0.75 -2.90625 C 0.75 -3.9375 1.109375 -4.691406 1.828125 -5.171875 C 2.546875 -5.660156 3.632812 -5.929688 5.09375 -5.984375 L 6.765625 -6.046875 L 6.765625 -6.46875 C 6.765625 -7.445312 6.265625 -7.9375 5.265625 -7.9375 C 4.484375 -7.9375 3.570312 -7.703125 2.53125 -7.234375 L 1.65625 -9.03125 C 2.769531 -9.613281 4.003906 -9.90625 5.359375 -9.90625 C 6.660156 -9.90625 7.660156 -9.617188 8.359375 -9.046875 C 9.054688 -8.484375 9.40625 -7.625 9.40625 -6.46875 L 9.40625 0 Z M 6.765625 -4.5 L 5.75 -4.46875 C 4.976562 -4.4375 4.40625 -4.289062 4.03125 -4.03125 C 3.65625 -3.78125 3.46875 -3.394531 3.46875 -2.875 C 3.46875 -2.132812 3.894531 -1.765625 4.75 -1.765625 C 5.363281 -1.765625 5.851562 -1.941406 6.21875 -2.296875 C 6.582031 -2.648438 6.765625 -3.117188 6.765625 -3.703125 Z M 6.765625 -4.5 "/></g></g></g><g fill="rgb(0.389099%, 59.21936%, 96.469116%)" fill-opacity="1"><g transform="translate(255.338368, 99.93335)"><g><path d="M 6.8125 -9.890625 C 7.164062 -9.890625 7.460938 -9.863281 7.703125 -9.8125 L 7.5 -7.328125 C 7.289062 -7.390625 7.03125 -7.421875 6.71875 -7.421875 C 5.875 -7.421875 5.210938 -7.203125 4.734375 -6.765625 C 4.265625 -6.328125 4.03125 -5.71875 4.03125 -4.9375 L 4.03125 0 L 1.390625 0 L 1.390625 -9.703125 L 3.390625 -9.703125 L 3.78125 -8.078125 L 3.921875 -8.078125 C 4.210938 -8.617188 4.613281 -9.054688 5.125 -9.390625 C 5.644531 -9.722656 6.207031 -9.890625 6.8125 -9.890625 Z M 6.8125 -9.890625 "/></g></g></g><g fill="rgb(0.389099%, 59.21936%, 96.469116%)" fill-opacity="1"><g transform="translate(264.742464, 99.93335)"><g><path d="M 5.40625 -8 C 4.84375 -8 4.398438 -7.820312 4.078125 -7.46875 C 3.765625 -7.113281 3.585938 -6.609375 3.546875 -5.953125 L 7.265625 -5.953125 C 7.242188 -6.609375 7.066406 -7.113281 6.734375 -7.46875 C 6.410156 -7.820312 5.96875 -8 5.40625 -8 Z M 5.78125 0.171875 C 4.21875 0.171875 2.992188 -0.253906 2.109375 -1.109375 C 1.234375 -1.972656 0.796875 -3.195312 0.796875 -4.78125 C 0.796875 -6.40625 1.203125 -7.660156 2.015625 -8.546875 C 2.828125 -9.441406 3.953125 -9.890625 5.390625 -9.890625 C 6.765625 -9.890625 7.832031 -9.5 8.59375 -8.71875 C 9.351562 -7.9375 9.734375 -6.859375 9.734375 -5.484375 L 9.734375 -4.1875 L 3.484375 -4.1875 C 3.515625 -3.4375 3.738281 -2.847656 4.15625 -2.421875 C 4.570312 -2.003906 5.15625 -1.796875 5.90625 -1.796875 C 6.488281 -1.796875 7.039062 -1.851562 7.5625 -1.96875 C 8.082031 -2.09375 8.625 -2.289062 9.1875 -2.5625 L 9.1875 -0.515625 C 8.726562 -0.285156 8.234375 -0.113281 7.703125 0 C 7.179688 0.113281 6.539062 0.171875 5.78125 0.171875 Z M 5.78125 0.171875 "/></g></g></g><g fill="rgb(0.389099%, 59.21936%, 96.469116%)" fill-opacity="1"><g transform="translate(276.576347, 99.93335)"><g/></g></g><g fill="rgb(0.389099%, 59.21936%, 96.469116%)" fill-opacity="1"><g transform="translate(282.526673, 99.93335)"><g><path d="M 9.09375 -3.53125 C 9.09375 -2.382812 8.675781 -1.476562 7.84375 -0.8125 C 7.019531 -0.15625 5.875 0.171875 4.40625 0.171875 C 3.050781 0.171875 1.851562 -0.0820312 0.8125 -0.59375 L 0.8125 -3.09375 C 1.664062 -2.707031 2.390625 -2.4375 2.984375 -2.28125 C 3.578125 -2.125 4.125 -2.046875 4.625 -2.046875 C 5.207031 -2.046875 5.65625 -2.15625 5.96875 -2.375 C 6.289062 -2.601562 6.453125 -2.941406 6.453125 -3.390625 C 6.453125 -3.640625 6.378906 -3.859375 6.234375 -4.046875 C 6.097656 -4.242188 5.894531 -4.429688 5.625 -4.609375 C 5.363281 -4.796875 4.816406 -5.085938 3.984375 -5.484375 C 3.210938 -5.847656 2.628906 -6.195312 2.234375 -6.53125 C 1.847656 -6.863281 1.539062 -7.253906 1.3125 -7.703125 C 1.082031 -8.148438 0.96875 -8.671875 0.96875 -9.265625 C 0.96875 -10.390625 1.347656 -11.269531 2.109375 -11.90625 C 2.867188 -12.550781 3.921875 -12.875 5.265625 -12.875 C 5.921875 -12.875 6.546875 -12.796875 7.140625 -12.640625 C 7.742188 -12.484375 8.375 -12.265625 9.03125 -11.984375 L 8.15625 -9.890625 C 7.476562 -10.171875 6.914062 -10.363281 6.46875 -10.46875 C 6.03125 -10.582031 5.597656 -10.640625 5.171875 -10.640625 C 4.660156 -10.640625 4.269531 -10.519531 4 -10.28125 C 3.726562 -10.039062 3.59375 -9.726562 3.59375 -9.34375 C 3.59375 -9.113281 3.644531 -8.910156 3.75 -8.734375 C 3.863281 -8.554688 4.039062 -8.382812 4.28125 -8.21875 C 4.519531 -8.050781 5.085938 -7.753906 5.984375 -7.328125 C 7.171875 -6.765625 7.984375 -6.195312 8.421875 -5.625 C 8.867188 -5.050781 9.09375 -4.351562 9.09375 -3.53125 Z M 9.09375 -3.53125 "/></g></g></g><g fill="rgb(0.389099%, 59.21936%, 96.469116%)" fill-opacity="1"><g transform="translate(293.648982, 99.93335)"><g><path d="M 5.40625 -8 C 4.84375 -8 4.398438 -7.820312 4.078125 -7.46875 C 3.765625 -7.113281 3.585938 -6.609375 3.546875 -5.953125 L 7.265625 -5.953125 C 7.242188 -6.609375 7.066406 -7.113281 6.734375 -7.46875 C 6.410156 -7.820312 5.96875 -8 5.40625 -8 Z M 5.78125 0.171875 C 4.21875 0.171875 2.992188 -0.253906 2.109375 -1.109375 C 1.234375 -1.972656 0.796875 -3.195312 0.796875 -4.78125 C 0.796875 -6.40625 1.203125 -7.660156 2.015625 -8.546875 C 2.828125 -9.441406 3.953125 -9.890625 5.390625 -9.890625 C 6.765625 -9.890625 7.832031 -9.5 8.59375 -8.71875 C 9.351562 -7.9375 9.734375 -6.859375 9.734375 -5.484375 L 9.734375 -4.1875 L 3.484375 -4.1875 C 3.515625 -3.4375 3.738281 -2.847656 4.15625 -2.421875 C 4.570312 -2.003906 5.15625 -1.796875 5.90625 -1.796875 C 6.488281 -1.796875 7.039062 -1.851562 7.5625 -1.96875 C 8.082031 -2.09375 8.625 -2.289062 9.1875 -2.5625 L 9.1875 -0.515625 C 8.726562 -0.285156 8.234375 -0.113281 7.703125 0 C 7.179688 0.113281 6.539062 0.171875 5.78125 0.171875 Z M 5.78125 0.171875 "/></g></g></g><g fill="rgb(0.389099%, 59.21936%, 96.469116%)" fill-opacity="1"><g transform="translate(305.482873, 99.93335)"><g><path d="M 6.8125 -9.890625 C 7.164062 -9.890625 7.460938 -9.863281 7.703125 -9.8125 L 7.5 -7.328125 C 7.289062 -7.390625 7.03125 -7.421875 6.71875 -7.421875 C 5.875 -7.421875 5.210938 -7.203125 4.734375 -6.765625 C 4.265625 -6.328125 4.03125 -5.71875 4.03125 -4.9375 L 4.03125 0 L 1.390625 0 L 1.390625 -9.703125 L 3.390625 -9.703125 L 3.78125 -8.078125 L 3.921875 -8.078125 C 4.210938 -8.617188 4.613281 -9.054688 5.125 -9.390625 C 5.644531 -9.722656 6.207031 -9.890625 6.8125 -9.890625 Z M 6.8125 -9.890625 "/></g></g></g><g fill="rgb(0.389099%, 59.21936%, 96.469116%)" fill-opacity="1"><g transform="translate(314.886975, 99.93335)"><g><path d="M 3.703125 0 L 0 -9.703125 L 2.765625 -9.703125 L 4.640625 -4.171875 C 4.847656 -3.472656 4.976562 -2.8125 5.03125 -2.1875 L 5.09375 -2.1875 C 5.113281 -2.738281 5.242188 -3.398438 5.484375 -4.171875 L 7.34375 -9.703125 L 10.109375 -9.703125 L 6.421875 0 Z M 3.703125 0 "/></g></g></g><g fill="rgb(0.389099%, 59.21936%, 96.469116%)" fill-opacity="1"><g transform="translate(326.330357, 99.93335)"><g><path d="M 1.28125 -12.21875 C 1.28125 -13.082031 1.757812 -13.515625 2.71875 -13.515625 C 3.675781 -13.515625 4.15625 -13.082031 4.15625 -12.21875 C 4.15625 -11.800781 4.035156 -11.476562 3.796875 -11.25 C 3.554688 -11.019531 3.195312 -10.90625 2.71875 -10.90625 C 1.757812 -10.90625 1.28125 -11.34375 1.28125 -12.21875 Z M 4.03125 0 L 1.390625 0 L 1.390625 -9.703125 L 4.03125 -9.703125 Z M 4.03125 0 "/></g></g></g><g fill="rgb(0.389099%, 59.21936%, 96.469116%)" fill-opacity="1"><g transform="translate(333.08772, 99.93335)"><g><path d="M 5.328125 0.171875 C 2.304688 0.171875 0.796875 -1.484375 0.796875 -4.796875 C 0.796875 -6.453125 1.207031 -7.710938 2.03125 -8.578125 C 2.851562 -9.453125 4.03125 -9.890625 5.5625 -9.890625 C 6.6875 -9.890625 7.695312 -9.671875 8.59375 -9.234375 L 7.8125 -7.1875 C 7.394531 -7.351562 7.003906 -7.488281 6.640625 -7.59375 C 6.285156 -7.695312 5.925781 -7.75 5.5625 -7.75 C 4.1875 -7.75 3.5 -6.769531 3.5 -4.8125 C 3.5 -2.914062 4.1875 -1.96875 5.5625 -1.96875 C 6.070312 -1.96875 6.539062 -2.035156 6.96875 -2.171875 C 7.40625 -2.304688 7.84375 -2.519531 8.28125 -2.8125 L 8.28125 -0.546875 C 7.851562 -0.273438 7.421875 -0.0859375 6.984375 0.015625 C 6.546875 0.117188 5.992188 0.171875 5.328125 0.171875 Z M 5.328125 0.171875 "/></g></g></g><g fill="rgb(0.389099%, 59.21936%, 96.469116%)" fill-opacity="1"><g transform="translate(343.559186, 99.93335)"><g><path d="M 5.40625 -8 C 4.84375 -8 4.398438 -7.820312 4.078125 -7.46875 C 3.765625 -7.113281 3.585938 -6.609375 3.546875 -5.953125 L 7.265625 -5.953125 C 7.242188 -6.609375 7.066406 -7.113281 6.734375 -7.46875 C 6.410156 -7.820312 5.96875 -8 5.40625 -8 Z M 5.78125 0.171875 C 4.21875 0.171875 2.992188 -0.253906 2.109375 -1.109375 C 1.234375 -1.972656 0.796875 -3.195312 0.796875 -4.78125 C 0.796875 -6.40625 1.203125 -7.660156 2.015625 -8.546875 C 2.828125 -9.441406 3.953125 -9.890625 5.390625 -9.890625 C 6.765625 -9.890625 7.832031 -9.5 8.59375 -8.71875 C 9.351562 -7.9375 9.734375 -6.859375 9.734375 -5.484375 L 9.734375 -4.1875 L 3.484375 -4.1875 C 3.515625 -3.4375 3.738281 -2.847656 4.15625 -2.421875 C 4.570312 -2.003906 5.15625 -1.796875 5.90625 -1.796875 C 6.488281 -1.796875 7.039062 -1.851562 7.5625 -1.96875 C 8.082031 -2.09375 8.625 -2.289062 9.1875 -2.5625 L 9.1875 -0.515625 C 8.726562 -0.285156 8.234375 -0.113281 7.703125 0 C 7.179688 0.113281 6.539062 0.171875 5.78125 0.171875 Z M 5.78125 0.171875 "/></g></g></g><g fill="rgb(0.389099%, 59.21936%, 96.469116%)" fill-opacity="1"><g transform="translate(355.393077, 99.93335)"><g><path d="M 8.15625 -2.875 C 8.15625 -1.882812 7.8125 -1.128906 7.125 -0.609375 C 6.4375 -0.0859375 5.398438 0.171875 4.015625 0.171875 C 3.304688 0.171875 2.703125 0.125 2.203125 0.03125 C 1.710938 -0.0625 1.25 -0.203125 0.8125 -0.390625 L 0.8125 -2.578125 C 1.300781 -2.347656 1.851562 -2.15625 2.46875 -2 C 3.09375 -1.84375 3.640625 -1.765625 4.109375 -1.765625 C 5.066406 -1.765625 5.546875 -2.039062 5.546875 -2.59375 C 5.546875 -2.800781 5.484375 -2.96875 5.359375 -3.09375 C 5.234375 -3.226562 5.015625 -3.378906 4.703125 -3.546875 C 4.390625 -3.710938 3.972656 -3.90625 3.453125 -4.125 C 2.703125 -4.4375 2.148438 -4.722656 1.796875 -4.984375 C 1.453125 -5.253906 1.195312 -5.5625 1.03125 -5.90625 C 0.875 -6.25 0.796875 -6.675781 0.796875 -7.1875 C 0.796875 -8.039062 1.128906 -8.703125 1.796875 -9.171875 C 2.460938 -9.648438 3.410156 -9.890625 4.640625 -9.890625 C 5.816406 -9.890625 6.957031 -9.632812 8.0625 -9.125 L 7.265625 -7.21875 C 6.773438 -7.425781 6.316406 -7.59375 5.890625 -7.71875 C 5.472656 -7.851562 5.046875 -7.921875 4.609375 -7.921875 C 3.816406 -7.921875 3.421875 -7.710938 3.421875 -7.296875 C 3.421875 -7.054688 3.546875 -6.847656 3.796875 -6.671875 C 4.054688 -6.503906 4.613281 -6.25 5.46875 -5.90625 C 6.21875 -5.59375 6.769531 -5.300781 7.125 -5.03125 C 7.476562 -4.769531 7.738281 -4.46875 7.90625 -4.125 C 8.070312 -3.78125 8.15625 -3.363281 8.15625 -2.875 Z M 8.15625 -2.875 "/></g></g></g><path fill="rgb(0.779724%, 9.408569%, 16.859436%)" d="M 54.75 100.109375 C 53.714844 99.738281 52.578125 100.277344 52.207031 101.320312 C 51.839844 102.355469 52.378906 103.503906 53.414062 103.875 C 55.597656 104.65625 61.089844 106.058594 64.871094 102.121094 C 67.449219 99.4375 67.390625 94.875 67.125 92.398438 C 67.019531 91.371094 66.15625 90.609375 65.152344 90.609375 C 65.082031 90.609375 65.011719 90.613281 64.9375 90.621094 C 63.84375 90.738281 63.054688 91.722656 63.171875 92.820312 C 63.484375 95.773438 63.039062 98.269531 62.011719 99.34375 C 59.835938 101.601562 56.210938 100.628906 54.75 100.109375 Z M 54.75 100.109375 " fill-opacity="1" fill-rule="nonzero"/><path fill="rgb(0.779724%, 9.408569%, 16.859436%)" d="M 14.378906 66.792969 C 14.441406 66.742188 21.148438 61.761719 33.46875 60.007812 C 34.554688 59.851562 35.3125 58.839844 35.15625 57.746094 C 35.019531 56.75 34.167969 56.027344 33.195312 56.027344 C 33.097656 56.027344 33.003906 56.035156 32.910156 56.050781 C 19.488281 57.960938 12.277344 63.375 11.976562 63.605469 C 11.105469 64.273438 10.933594 65.523438 11.59375 66.402344 C 12.253906 67.277344 13.5 67.457031 14.378906 66.792969 Z M 14.378906 66.792969 " fill-opacity="1" fill-rule="nonzero"/><path fill="rgb(0.779724%, 9.408569%, 16.859436%)" d="M 17.074219 54.25 C 17.144531 54.21875 24.304688 50.863281 32.480469 50.667969 C 33.578125 50.640625 34.445312 49.722656 34.421875 48.617188 C 34.394531 47.53125 33.511719 46.667969 32.433594 46.667969 C 32.417969 46.667969 32.402344 46.667969 32.386719 46.667969 C 23.335938 46.882812 15.695312 50.484375 15.371094 50.636719 C 14.382812 51.109375 13.957031 52.300781 14.429688 53.296875 C 14.894531 54.292969 16.078125 54.722656 17.074219 54.25 Z M 17.074219 54.25 " fill-opacity="1" fill-rule="nonzero"/><path fill="rgb(0.779724%, 9.408569%, 16.859436%)" d="M 19.296875 44.0625 C 19.339844 44.03125 24.078125 41.207031 31.535156 41.472656 C 31.558594 41.476562 31.582031 41.476562 31.605469 41.476562 C 32.671875 41.476562 33.554688 40.625 33.589844 39.542969 C 33.625 38.441406 32.765625 37.515625 31.667969 37.476562 C 31.296875 37.464844 30.933594 37.457031 30.574219 37.457031 C 22.503906 37.457031 17.445312 40.507812 17.226562 40.644531 C 16.292969 41.21875 16 42.441406 16.566406 43.386719 C 17.132812 44.328125 18.355469 44.628906 19.296875 44.0625 Z M 19.296875 44.0625 " fill-opacity="1" fill-rule="nonzero"/><path fill="rgb(0.779724%, 9.408569%, 16.859436%)" d="M 22.957031 34 C 22.988281 33.980469 26.527344 32.28125 30.109375 33.183594 C 31.175781 33.449219 32.253906 32.800781 32.523438 31.730469 C 32.789062 30.65625 32.140625 29.570312 31.074219 29.300781 C 29.984375 29.027344 28.917969 28.921875 27.90625 28.921875 C 24.242188 28.921875 21.347656 30.335938 21.195312 30.414062 C 20.214844 30.90625 19.816406 32.097656 20.296875 33.085938 C 20.78125 34.074219 21.972656 34.484375 22.957031 34 Z M 22.957031 34 " fill-opacity="1" fill-rule="nonzero"/><g clip-path="url(#id2)"><path fill="rgb(0.779724%, 9.408569%, 16.859436%)" d="M 6.394531 107.535156 C 12.65625 115.792969 24.792969 113.808594 28.550781 112.460938 C 30.195312 111.871094 31.890625 111.359375 33.582031 110.933594 C 37.550781 109.9375 41.746094 109.9375 45.714844 110.933594 C 47.40625 111.359375 49.097656 111.871094 50.746094 112.460938 C 55.230469 114.066406 64.074219 114.824219 70.070312 110.34375 C 74.597656 106.964844 76.707031 101.402344 76.335938 93.75 C 75.707031 86.128906 73.5 80.703125 71.554688 75.914062 C 70.898438 74.300781 70.277344 72.777344 69.765625 71.277344 C 67.753906 65.40625 66.285156 60.640625 64.257812 48.390625 C 62.496094 37.746094 60.039062 31.367188 56.527344 28.316406 C 55.875 27.75 55.085938 27.339844 54.175781 27.089844 C 53.628906 26.9375 53.074219 26.867188 52.519531 26.867188 C 51.253906 26.867188 50.003906 27.253906 48.941406 28 C 47.410156 29.074219 46.441406 30.761719 46.28125 32.632812 L 44.457031 54.007812 C 43.578125 64.648438 38.511719 66.160156 28.050781 68.328125 C 14.039062 71.226562 8.742188 75.789062 8.523438 75.980469 C 7.699219 76.710938 7.613281 77.972656 8.339844 78.804688 C 9.0625 79.636719 10.316406 79.722656 11.148438 78.992188 C 11.191406 78.953125 16.070312 74.894531 28.855469 72.246094 C 38.320312 70.285156 47.257812 68.433594 48.421875 54.34375 L 50.246094 32.972656 C 50.308594 32.289062 50.660156 31.675781 51.21875 31.28125 C 51.777344 30.886719 52.472656 30.769531 53.132812 30.949219 C 53.457031 31.039062 53.734375 31.175781 53.929688 31.34375 C 56.625 33.683594 58.78125 39.640625 60.335938 49.046875 C 62.414062 61.601562 63.929688 66.515625 66.007812 72.578125 C 66.554688 74.1875 67.195312 75.757812 67.875 77.425781 C 69.710938 81.945312 71.796875 87.074219 72.371094 94.011719 C 72.667969 100.179688 71.097656 104.59375 67.703125 107.128906 C 62.984375 110.652344 55.617188 109.957031 52.082031 108.691406 C 50.316406 108.058594 48.496094 107.507812 46.679688 107.050781 C 42.082031 105.898438 37.222656 105.898438 32.621094 107.050781 C 30.800781 107.507812 28.984375 108.0625 27.21875 108.691406 C 23.382812 110.070312 14.023438 110.996094 9.558594 105.109375 C 7.933594 102.96875 7.285156 100.269531 7.734375 97.511719 C 8.214844 94.554688 9.902344 91.894531 12.367188 90.214844 C 16.949219 87.09375 22.027344 84.925781 27.507812 83.757812 C 37.699219 81.378906 42.613281 79.769531 46.277344 77.621094 C 47.226562 77.066406 47.546875 75.839844 46.992188 74.886719 C 46.4375 73.929688 45.222656 73.613281 44.273438 74.167969 C 41.035156 76.066406 36.246094 77.609375 26.648438 79.855469 C 20.699219 81.121094 15.144531 83.492188 10.136719 86.90625 C 6.769531 89.199219 4.464844 92.832031 3.808594 96.867188 C 3.179688 100.71875 4.101562 104.511719 6.394531 107.535156 Z M 6.394531 107.535156 " fill-opacity="1" fill-rule="nonzero"/></g></svg>