<svg xmlns="http://www.w3.org/2000/svg" xmlns:xlink="http://www.w3.org/1999/xlink" width="40" zoomAndPan="magnify" viewBox="0 0 30 30.000001" height="40" preserveAspectRatio="xMidYMid meet" version="1.0"><defs><clipPath id="id1"><path d="M 0.710938 0.226562 L 29.515625 0.226562 L 29.515625 29.03125 L 0.710938 29.03125 Z M 0.710938 0.226562 " clip-rule="nonzero"/></clipPath></defs><g clip-path="url(#id1)"><path fill="rgb(11.369324%, 60.778809%, 94.119263%)" d="M 26.113281 29.257812 L 4.339844 29.257812 C 2.335938 29.257812 0.710938 27.632812 0.710938 25.628906 L 0.710938 3.855469 C 0.710938 1.851562 2.335938 0.226562 4.339844 0.226562 L 26.113281 0.226562 C 28.117188 0.226562 29.742188 1.851562 29.742188 3.855469 L 29.742188 25.628906 C 29.742188 27.632812 28.117188 29.257812 26.113281 29.257812 Z M 26.113281 29.257812 " fill-opacity="1" fill-rule="nonzero"/></g><path fill="rgb(100%, 100%, 100%)" d="M 11.859375 22.117188 C 18.703125 22.117188 22.449219 16.441406 22.449219 11.527344 C 22.449219 11.367188 22.449219 11.207031 22.441406 11.046875 C 23.167969 10.527344 23.796875 9.867188 24.300781 9.117188 C 23.632812 9.414062 22.914062 9.613281 22.160156 9.707031 C 22.925781 9.25 23.515625 8.515625 23.796875 7.644531 C 23.078125 8.074219 22.28125 8.378906 21.433594 8.542969 C 20.75 7.820312 19.785156 7.367188 18.71875 7.367188 C 16.664062 7.367188 14.996094 9.039062 14.996094 11.09375 C 14.996094 11.382812 15.03125 11.664062 15.089844 11.941406 C 11.996094 11.789062 9.253906 10.300781 7.417969 8.050781 C 7.097656 8.601562 6.917969 9.242188 6.917969 9.921875 C 6.917969 11.214844 7.578125 12.355469 8.570312 13.023438 C 7.960938 13 7.386719 12.835938 6.886719 12.558594 C 6.886719 12.574219 6.886719 12.585938 6.886719 12.609375 C 6.886719 14.410156 8.171875 15.917969 9.871094 16.261719 C 9.558594 16.347656 9.230469 16.390625 8.890625 16.390625 C 8.652344 16.390625 8.417969 16.367188 8.195312 16.324219 C 8.664062 17.804688 10.042969 18.878906 11.671875 18.910156 C 10.394531 19.910156 8.789062 20.503906 7.046875 20.503906 C 6.75 20.503906 6.453125 20.492188 6.160156 20.453125 C 7.800781 21.5 9.761719 22.117188 11.859375 22.117188 " fill-opacity="1" fill-rule="nonzero"/></svg>